<svg width="56" height="57" viewBox="0 0 56 57" fill="none" xmlns="http://www.w3.org/2000/svg">
<path d="M48.2347 27.0416C48.2695 28.7238 46.9301 30.1139 45.2479 30.1416L30.7615 30.3812C32.4084 30.3621 33.8274 31.7454 33.8351 33.43C33.8423 34.9667 32.5875 36.1433 31.0581 36.1611L29.0967 36.1841C31.0072 36.1618 32.6113 38.0279 32.0606 40.0606C31.6783 41.4717 30.3702 42.3887 28.8934 42.4058L26.7535 42.4309C28.337 42.4122 29.7098 43.6911 29.8201 45.2866L29.8203 45.2917C29.9405 47.0314 28.6359 48.458 26.9069 48.4784L18.857 48.5724C13.1597 48.6388 8.22056 44.0462 7.82518 38.3141L7.3753 31.7985C7.06631 27.323 9.64376 23.3182 13.77 21.8627C16.739 20.871 18.8937 19.1444 20.5631 16.5109C21.084 15.662 21.9999 15.1487 23.0147 15.1367C25.4509 15.1085 27.1217 17.8015 25.9711 19.9028L23.0484 24.4271L24.5192 24.4099L45.1472 24.0662C46.8198 24.0385 48.2002 25.3685 48.2349 27.0411L48.2347 27.0416Z" fill="#FED785"/>
<path d="M34.5933 13.1841L40.2068 7.18239L42.3702 9.20588L36.7567 15.2076L34.5933 13.1841Z" fill="#FED785"/>
<path d="M37.5879 16.6264L45.0744 16.3289L45.1918 19.2889L37.7053 19.5863L37.5879 16.6264Z" fill="#FED785"/>
<path d="M29.6984 5.29538L32.6578 5.16755L32.9759 12.5385L30.0165 12.6664L29.6984 5.29538Z" fill="#FED785"/>
</svg>
